<mxfile host="app.diagrams.net" modified="2023-10-13T09:45:28.926Z" agent="Mozilla/5.0 (Windows NT 10.0; Win64; x64) AppleWebKit/537.36 (KHTML, like Gecko) Chrome/116.0.0.0 Safari/537.36 OPR/102.0.0.0" version="22.0.4" etag="8EKzEF0d1eWC6ASpQh9G" type="github">
  <diagram name="Страница — 1" id="AEOzVkP-CdKs1kqB-nF3">
    <mxGraphModel>
      <root>
        <mxCell id="0" />
        <mxCell id="1" parent="0" />
      </root>
    </mxGraphModel>
  </diagram>
</mxfile>
